/* XPM */
static char *_6cacbb23ca740b0ee11652441533e89N974G4J2FdIQEdfe[] = {
/* columns rows colors chars-per-pixel */
"64 64 241 2 ",
"   c None",
".  c #010100",
"X  c #090C04",
"o  c #040C09",
"O  c #130302",
"+  c #1D0203",
"@  c #1F0E03",
"#  c #1A0608",
"$  c #0D1407",
"%  c #0B180B",
"&  c #1D1203",
"*  c #141D0A",
"=  c #161708",
"-  c #0B1C16",
";  c #171617",
":  c #220603",
">  c #200B03",
",  c #2B0305",
"<  c #390306",
"1  c #251403",
"2  c #3C1A06",
"3  c #16210B",
"4  c #152816",
"5  c #1C3719",
"6  c #0E2617",
"7  c #233412",
"8  c #273C18",
"9  c #2F2811",
"0  c #162C26",
"q  c #133727",
"w  c #292B27",
"e  c #211220",
"r  c #4B0208",
"t  c #430807",
"y  c #59030A",
"u  c #441706",
"i  c #571508",
"p  c #4F0416",
"a  c #79050D",
"s  c #7F051F",
"d  c #6B100F",
"f  c #4A2604",
"g  c #532608",
"h  c #533308",
"j  c #50350E",
"k  c #69300B",
"l  c #6E0626",
"z  c #730623",
"x  c #7A0524",
"c  c #780529",
"v  c #523134",
"b  c #69302B",
"n  c #4F1A24",
"m  c #2D4418",
"M  c #334C1A",
"N  c #304618",
"B  c #3A551D",
"V  c #3E5A1E",
"C  c #154E34",
"Z  c #264D28",
"A  c #385A26",
"S  c #3B4537",
"D  c #2C5333",
"F  c #346636",
"G  c #336B34",
"H  c #505036",
"J  c #704D2E",
"K  c #476924",
"L  c #537B2A",
"P  c #4E763B",
"I  c #716D38",
"U  c #2F3E42",
"Y  c #0B5749",
"T  c #155547",
"R  c #285846",
"E  c #2F4943",
"W  c #076A53",
"Q  c #156D4B",
"!  c #3D7B47",
"~  c #276F4A",
"^  c #4A7445",
"/  c #696546",
"(  c #4C5E41",
")  c #8B040F",
"_  c #83041E",
"`  c #8C041B",
"'  c #8C0614",
"]  c #9C0315",
"[  c #94031C",
"{  c #9B0419",
"}  c #960815",
"|  c #9C1617",
" . c #8C1D0E",
".. c #A50312",
"X. c #AC0212",
"o. c #A80818",
"O. c #B40313",
"+. c #BB0414",
"@. c #B40B13",
"#. c #BB071B",
"$. c #AA1516",
"%. c #B31214",
"&. c #B91517",
"*. c #9A250E",
"=. c #8C380E",
"-. c #BA2614",
";. c #BA3213",
":. c #85022C",
">. c #8B032B",
",. c #870324",
"<. c #930324",
"1. c #9B0424",
"2. c #98082A",
"3. c #951A25",
"4. c #88122B",
"5. c #A90524",
"6. c #B60822",
"7. c #AC1825",
"8. c #BB1724",
"9. c #8F3126",
"0. c #A92D25",
"q. c #C30316",
"w. c #CB0416",
"e. c #C3041D",
"r. c #CD071A",
"t. c #C70C14",
"y. c #D50C16",
"u. c #D30619",
"i. c #D70B18",
"p. c #C71917",
"a. c #DC1419",
"s. c #DD1B18",
"d. c #D81816",
"f. c #E51B16",
"g. c #C62815",
"h. c #DB2516",
"j. c #DB2C16",
"k. c #D62917",
"l. c #C63918",
"z. c #D83617",
"x. c #EB2C17",
"c. c #E72718",
"v. c #F12D18",
"b. c #F12917",
"n. c #EB3A16",
"m. c #E73617",
"M. c #F33B15",
"N. c #F23518",
"B. c #F33817",
"V. c #C20621",
"C. c #D42B23",
"Z. c #E0362A",
"A. c #89450B",
"S. c #91430E",
"D. c #8B580D",
"F. c #96560F",
"G. c #B34E12",
"H. c #944F2C",
"J. c #936A2C",
"K. c #A8752B",
"L. c #A26817",
"P. c #D64415",
"I. c #D94816",
"U. c #C85714",
"Y. c #DC5916",
"T. c #D85516",
"R. c #CC4814",
"E. c #EC4C16",
"W. c #E74617",
"Q. c #F24716",
"!. c #E35317",
"~. c #E95717",
"^. c #F35517",
"/. c #D96717",
"(. c #CA7B16",
"). c #D1751E",
"_. c #EB6416",
"`. c #E96817",
"'. c #F46A18",
"]. c #E77517",
"[. c #F57119",
"{. c #ED522B",
"}. c #F0702D",
"|. c #CB4E20",
" X c #907C49",
".X c #EA714F",
"XX c #36803F",
"oX c #59822C",
"OX c #5B862D",
"+X c #46873B",
"@X c #568A35",
"#X c #57973E",
"$X c #679835",
"%X c #6D8637",
"&X c #75AC3B",
"*X c #6DA238",
"=X c #378847",
"-X c #2F8B51",
";X c #4B9A49",
":X c #549749",
">X c #4F8F48",
",X c #649145",
"<X c #4FA74E",
"1X c #59A74A",
"2X c #53AE52",
"3X c #66AA46",
"4X c #7AB945",
"5X c #64B851",
"6X c #69B24C",
"7X c #77C24A",
"8X c #6FC552",
"9X c #8B8B3A",
"0X c #E98519",
"qX c #EA9A1F",
"wX c #EA9828",
"eX c #F48D31",
"rX c #F0AB39",
"tX c #CD8724",
"yX c #BEB37A",
"uX c #9D9A5B",
"iX c #F19055",
"pX c #F1AB4F",
"aX c #F3AF76",
"sX c #E4A55A",
"dX c #87C946",
"fX c #8CD249",
"gX c #92DB4D",
"hX c #81D451",
"jX c #94C548",
"kX c #96E24E",
"lX c #D7C37E",
"zX c #F0C876",
"xX c #EEC057",
"cX c #BBB88A",
"vX c #F1B983",
"bX c #F4CE8C",
"nX c #F4DBA4",
"mX c #F5E4A5",
"MX c #F1EDAF",
"NX c #D8D49E",
"BX c #FDFDC5",
/* pixels */
"                                                                        . . . . . . . .                                         ",
"                                                                        . . . . . . . .                                         ",
"                                                                        * * * $ X . . .                                         ",
"                                                                      7 N M m 7 * X . .                                         ",
"                                          . . . . . . . . . . . . . * M K oXL V 7 X . .           . . . . . . . . . .           ",
"                                        . . . . . . . . . . . . . . * B OX&X&XoXM * . .         . . . . . . . . . . . .         ",
"                                        . . . X $ * 3 3 3 * * X o o 3 A $XdXdX$XK 7 % o         * * 3 3 3 3 * $ X . . .         ",
"                                        . . X * 7 M B V V B N 7 * % 4 A $XfXgX4X@XA 8 4 %     7 m M B V V B M 7 * X . .         ",
"                                        . . $ 7 V oX$X$X$X$XL A 8 - 4 A $XfXkXdX3X+XG Z 4 $ * 8 K oX$X$X$X$XoXV 7 $ . .         ",
"                                        . . * N L &XdXfXfXdX&XP Z 0 0 A $XdXgXhX8X1X+XF 5 % 3 M oX&XdXfXfXdX&XL N * . .         ",
"                                        . . * N L &XdXgXkXgX7X:XF q q D >X4XhXhX8X5X;XG Z 6 4 A @X7XgXkXgXdX&XoXM * . .         ",
"                                        . . $ 5 A @X3X7XhXhX8X:X~ C C T ! :X6X5X8X5X<XXXC q q F #X7XfXdX4X*X@XK m * .           ",
"                                        . . o - 5 D G >X6X8X5X<X~ Y Y T ~ ! >X:X2X2X<X=XQ C C ~ ;X5X8X3X@XK B N 7               ",
"                                        . . o o - 0 Z F >X1X2X;X-XQ Y Y T R R ^ :X<X<X-X~ W W ~ =X2X1X+XA 7 3 $                 ",
"                                        & & 1 1 ; w w A P ,X3X:X! ~ R E U U E ( ^ :X:X=X~ W W -X-X;X>XG 5 $ . .                 ",
"                                      1 f h h j j j H I I 9X9XI / H v v v v b J J I I ^ ~ W W W -X-XG Z 6 o . .                 ",
"                                  . O 2 k A.F.F.F.F.L.K.K.K.K.J.H.9.9.4.4.4.3.9.9.9.J H R W W W W Q C q - . . .                 ",
"                                . . 1 h D.L.(.tX(.(.(.(.).)./.|.l.8.8.6.#.e.&.&.%.$.9.b S T W W Y Y C q - o . .                 ",
"                                ; 4 9 J J.tXwXwX0X0X].].`._.!.W.j.h.d.a.a.a.i.y.t.@.| b v E T Y Y Y C q 6 - % $                 ",
"                              w S H /  XuXsXpXrXeX`.~.~.^.^.E.E.W.n.m.x.c.f.f.f.y.t.%.3.b v S R R R ~ C Z Z 5 5 *               ",
"                          . ; H / uXuXyXvXzXaXiX}.{.m.m.n.Q.Q.E.^.~.~.E.M.v.b.f.f.s.p.&.3.b b H ( ! =X=XXXG G Z 4 o . . . . . . ",
"                        . . 9 H uXcXNXmXMXmXbXaX.XZ.s.f.c.N.Q.^._.].]._.E.N.v.b.v.x.h.p.%.| 9.J I >X<X<X<X;X+XG m % . . . . . . ",
"                        O 1 9 / uXNXMXBXBXMXnXaX.XZ.s.f.c.v.M.^._.].]._.W.m.x.x.v.v.x.s.t.@.$.9.I ,X3X6X5X5X1X+XA 5 * X X . . . ",
"                      1 2 h J  XyXmXBXBXBXBXmXvX.X{.m.x.x.v.B.W.Y.T.T.R.z.k.h.c.x.v.b.f.y.t.%.0.H.J.%X3X4X7X8X3X@XK M 7 * X . . ",
"                  . & f k D.J.uXlXMXBXBXBXBXmXvXiX}.!.W.n.M.N.m.z.l.;.-.-.p.p.d.c.v.b.f.a.y.t.%.0.9.H.9XjXfXhXdX4X*XoXV 7 $ . . ",
"                . . & f A.L.tXsXzXmXMXBXBXMXmXzXpXeX].~.E.M.x.h.p.&.%.$.@.@.&.p.h.x.v.c.f.i.t.+.@.$.9.J.9XjXgXkXgXdX&XL m * . . ",
"                . . & h D.(.wXpXzXbXnXmXmXmXbXzXpXwX0X`.E.n.c.d.t.@.X...X.@.&.p.j.m.N.v.f.a.u.q.+.X.$.H.9XjXdXfXfXdX&XoXM * . . ",
"                . . 1 h F.(.wXrXpXaXaXvXbXzXzXxXrXwX0X`.E.x.f.y.+.X...X.O.&.p.k.W.E.E.M.c.f.u.w.+.X.o.9.J %X$X$X$X$XOXK N * . . ",
"                . . 1 h F.(.0XeXeX.XiXiXpXpXpXrXrXqX0X`.W.c.a.w.O.X.X.O.t.p.j.W.~._._.E.c.s.u.w.+.X.} b b H A A A B M m 7       ",
"                . . & h F.(.0X[.}.{.{.}.}.wXwXwXqX0X].~.m.s.y.q.O.X.@.&.d.c.m.E._.].].!.m.d.u.w.+.X.} d n w 0 0 4 3 3 *         ",
"                . . & h D.(.0X[.^.M.M.Q._.].0X0X0X]./.Y.z.s.y.t.+.%.&.p.h.x.M.^.`.]./.T.z.d.r.q.+.O.} z n w 0 6 6 3 3 *         ",
"                . . & h D.(.0X'.^.B.N.M.^._.`.`./.T.T.P.j.h.s.d.g.g.g.k.m.N.M.Q.!.T.U.l.g.t.#.#.q.+.o.s v S Z Z Z M M 8 7       ",
"                . . & h D.(.0X'.^.M.v.N.Q.Q.E.I.R.l.l.g.h.c.c.c.z.P.P.P.n.B.N.n.z.l.;.-.$.5.5.#.e.e.&.9.J P ! +X@X@XL K m * . . ",
"                . . 1 h D.(.0X[.^.M.N.N.M.M.n.j.g.&.&.p.h.x.v.M.W.!.!.W.Q.N.x.h.g.&.$.o.1.1.1.5.e.r.p.0.I ,X1X5X4X4X&XoXM * . . ",
"                O > 2 k F.(.].[.^.Q.M.B.N.v.c.d.t.@.@.t.s.x.N.Q.E.!.!.W.n.x.h.d.&.o.] [ >.>.2.5.V.r.p.0.J.,X1X8XhXgXdX$XB 3 . . ",
"              1 2 g k S.G./.`.'.'.^.^.Q.N.b.f.y.q.+.+.t.s.x.B.M.Q.W.W.m.m.h.p.&.o.{ ` ,.:.>.2.5.V.r.p.0.J P >X5XhXkXfX$XB 3 . . ",
"          . @ u k =.S.G.R.!.^.'.'.'._.E.m.c.f.i.w.w.w.y.c.v.N.N.v.c.j.h.d.p.&.o.} ` _ ,.:.>.2.5.V.r.t.3.b S F :X7XgXfX$XV 3 . . ",
"        . . @ f k G.U.Y.W.Q.Q.^.'.].].~.m.s.i.u.u.i.y.s.c.v.v.b.c.s.y.y.t.@.o.} ` s x x :.>.2.5.e.r.#.` n w Z P 3XdXdX$XB 3 . . ",
"        . . @ g S.U.~.^.Q.N.n.E._.].`.!.j.d.i.i.i.a.s.f.c.b.b.c.a.i.r.#.O...{ ` s z x c :.>.1.6.e.r.#.` p e 0 D @X&X&XoXM * . . ",
"        . . @ g S.U.~.^.n.j.h.z.I.!.!.W.h.a.i.a.s.c.c.x.x.c.f.a.r.e.#.o...[ ` _ z z z x :.<.1.#.r.u.#.` p e - 5 A L L V 7 $ . . ",
"        . . @ g S.U.~.W.z.p.p.p.k.z.j.h.a.i.i.f.m.n.W.m.c.f.a.r.V.6.5.1.<._ s z z l z x _ [ o.#.u.u.q.' p # o 6 5 N N 7 * X . . ",
"        . . @ g S.U.Y.I.g.&.@.+.p.d.d.a.i.i.a.h.z.!.!.W.c.a.i.V.6.1.2.>.:.x z z z z z _ ` ] X.+.w.u.+.) r + o o $ * * $ X . . . ",
"        . . @ g S.U.Y.P.g.%.X.O.q.w.u.u.u.r.y.k.z.I.I.z.k.y.e.6.5.2.:.c x z z l z z s ` } ..O.+.+.+...a r + . . . . . . . . . . ",
"        . . @ g S.U.Y.P.-.$...X.O.q.q.e.e.#.6.8.l.l.l.l.p.6.6.5.<.:.c c l l l z z _ ` } X.O.O.X.] ) a y < + . . . . . . . . . . ",
"        . . > g S.U.Y.P.g.$...X.O.O.O.O.5.5.5.7.7.0.0.7.7.5.5.<.>.c c l l l z z _ ` } X.+.q.+...a y r < ,                       ",
"        . . > g S.U.Y.P.g.%.....X.X.X.o.1.1.2.2.2.2.2.2.2.2.2.>.:.c z l l z z _ ` { ..+.q.w.+.) y < + O                         ",
"        . . > g =.U.!.P.g.%.X.X.X.....{ 1.<.>.>.>.>.>.>.>.>.>.:.x x x x x x ,.[ { ..O.+.+.+...a r + . .                         ",
"        . . > i =.R.E.n.k.t.O.X.X.....] [ <.<.>.:.:.:.:.:.:.:.:.,._ ` ` [ 1.o.o.O.+.+.X...) a y < O .                           ",
"        . . > i *.z.M.v.s.y.q.O.X.....] ] { [ <.>.:.:.:.:.:.:.>.[ [ { ..o.#.#.e.r.w.+...a y r < :                               ",
"        . . > i *.z.x.b.f.y.w.q.O.X...........{ <.>.>.>.>.>.>.<.[ ] ..X.+.e.r.u.u.u.+.) y < + O                                 ",
"        . . : i  .-.k.h.s.d.d.p.t.%.%.$.$.$.$.o.5.2.2.2.2.2.2.<.[ ) } ] X.O.+.+.q.+...a r + . .                                 ",
"          . + t d  .$.-.g.j.c.j.k.g.g.g.g.g.g.g.&.8.8.8.8.8.7.| ' a a a a ) ) ) ) ) a y < O .                                   ",
"              , t i d  .;.z.W.W.W.I.P.P.P.P.P.z.j.k.C.C.h.C.p.| d r < < r r r r r r r < ,                                       ",
"                O > 2 k =.R.!.~.~.Y.Y.Y.Y.Y.Y.W.m.m.c.x.v.c.g.| d < + O O + + + + + + +                                         ",
"                . . > f =.G.U.U.U.U.U.U.U.U.U.R.l.z.k.j.j.k.-. .i : . . . . . . . . . .                                         ",
"                  . X 2 k =.S.S.S.S.S.S.S.S.=.=.*.*.*.*.*.*. .d u + . . . . . . . . .                                           ",
"                      1 u f g g g g g g g g g i i i i i i i i u <                                                               ",
"                        @ @ @ @ @ @ @ @ @ @ > > > > : : : : : +                                                                 ",
"                        . . . . . . . . . . . . . . . . . . . .                                                                 ",
"                          . . . . . . . . . . . . . . . . . .                                                                   ",
"                                                                                                                                ",
"                                                                                                                                ",
"                                                                                                                                ",
"                                                                                                                                "
};
