/* XPM */
static char * exit_xpm[] = {
"64 64 89 1",
" 	c #70C9A1",
".	c #2B1722",
"+	c #241219",
"@	c #28151C",
"#	c #231017",
"$	c #210F16",
"%	c #3A2B33",
"&	c #3F313A",
"*	c #42343C",
"=	c #3D2F38",
"-	c #645B64",
";	c #787580",
">	c #76737E",
",	c #767580",
"'	c #1F0C12",
")	c #9395A2",
"!	c #959AA7",
"~	c #91929F",
"{	c #8C97A3",
"]	c #2D1A21",
"^	c #534A54",
"/	c #82838F",
"(	c #9BA1AE",
"_	c #96A0AD",
":	c #8F929F",
"<	c #7E7D89",
"[	c #7B7B87",
"}	c #8A8A96",
"|	c #979DAA",
"1	c #999EAC",
"2	c #8A8791",
"3	c #9BA5B3",
"4	c #A9B9C7",
"5	c #A7B8C6",
"6	c #58515B",
"7	c #A1ADBA",
"8	c #A6B6C3",
"9	c #4E444D",
"0	c #9CA8B5",
"a	c #B2C8D6",
"b	c #B3CAD8",
"c	c #8D99A5",
"d	c #463C45",
"e	c #B1C6D4",
"f	c #AEC3D1",
"g	c #767984",
"h	c #2D191F",
"i	c #311D23",
"j	c #3D2424",
"k	c #473137",
"l	c #452F34",
"m	c #513738",
"n	c #67433A",
"o	c #71493B",
"p	c #604F57",
"q	c #685B62",
"r	c #4E363B",
"s	c #5F413F",
"t	c #8B5B45",
"u	c #604341",
"v	c #79747D",
"w	c #593E3F",
"x	c #60545C",
"y	c #726163",
"z	c #866A63",
"A	c #937366",
"B	c #937468",
"C	c #886D65",
"D	c #878E9A",
"E	c #ABBCCA",
"F	c #594850",
"G	c #A1A6AD",
"H	c #A5A8AE",
"I	c #A7ACB1",
"J	c #442B2B",
"K	c #533A3D",
"L	c #615057",
"M	c #817C87",
"N	c #513B40",
"O	c #5F4241",
"P	c #6D585A",
"Q	c #8B888D",
"R	c #9C9EA4",
"S	c #5F5D67",
"T	c #7C5344",
"U	c #8A695C",
"V	c #564446",
"W	c #69463C",
"X	c #724D43",
"    .+++@+++++++++++++++++++++++++++@+@+@#@@++@@+@@+@+++@++.    ",
"    .++++++#++++++++++++++++$+++++#+$+$+########$$+$$@#++++.    ",
"    .++++$$+##$####$$$$$$$$$$+#$#$###$+$$$$$####@$$$$$$$+@+.    ",
"    .++.%&&&&&&&&&&&*=*&*=**&=***=*=*&=*=****=*==&=**=*%.++.    ",
"....@++%-;>>>>>>>>>>>>>>>>;>>>,>>;>;>,>>>>>>>>>>,,,>>,;-%##.....",
"+++++''&,))))))!))~))~)))))))))))))))))))~)~)~{)))))))),&#'+++++",
"+@+++''&,))~)))))~)~~~)~))))))))))))))))~~~)~)))))))~));=''++@++",
"+++]%&&^/(_:<>>[}~:)!||:<>>>;,;>,;>>,>><{1|)~~~2[>><~|1/^=&%]+++",
"+++%->>/345{6%%^[~~!744{6=&&&&&&&&&**%%6{887!)~[9==6{540/,;-%++@",
"+##&,))(4abcd''=>~~|8ef{d''$$$$$$$$$$$$d{ea8!))>=''dcbb41{);&$$+",
"++#&,))(4bbcd''%>))|8ee{d'$$##'$+'$$$$'d{ae8|~)>&''dcbb41~)>&+++",
"++#&>)~:{c!g&'#&>~~|8ee!9h]ijjjjjjjji].9)ee8|~~>&''&g!c{{))>&$$@",
"++#&>))<6d9&i##&>~~|8fe!6klmnoooooonmllp|ff8|~~>&$#]&dd6<))>&+++",
"++#&>))>%''#++$&>)~|8fe_qrrsttttttttumrq_ff8|~)>&$+++''%>))>&$$@",
"++#&>){>%'$#+#$&v)~|8fe_qmrsottttttowmrq(ef5|~~>&$#++$'=>))>&$++",
"++#*[((<&#+@.]hdv~~!8ee0vx-yzAABAACCyqq>0ff5|))vd]]]@+$&[11[d$++",
"++#dDEED&$$]%kkF[~~|8ef40___GHHHGIHG(__08eE8!~)[FkkJ]+$dD4EDd$++",
"+##d{aa{9$$i&sKL/~~|7effeeeeeeeeeeeffaaeeEe8!~~M6mNki$$d{bbcd$$+",
"+##dcaac&##]ks*6M:~!8fffeeeeaeeeaeaeaafffEe8!~~M6KNki##dcbe{d$#@",
"++#d{aa{9$#imsOPQ|!34ff7_{c{c{{{{c{{{{{_5ee83|12Puumi$$d{eb{d$$+",
"+##d{aa{&##jntoCR555Efe_S&dddd9ddd9ddd*S|ffE555|zoToj$'d{aa{d$+@",
"+##d{aa{9$$jottBIefefaa{d''$$''''$''$$'dcaaffeaIBttoj$'d{aa{d+$+",
"++$d{aa{*$#jottBIbaeeabcd''+#$+$$#$$$$'dcbaffbbIBttoj$$d{aa{d$$@",
"+##d{aa{9'#jottCQcc{{ccgd]]]jjjjjjjji]]dgccc{{{QUttoj$$N{ab)d$#+",
"+##d{aa{d'#jottTVddddddd*kkKWooooooWr*k*dddddddVTttoj$'d{aa{d##+",
"++#d{aa{d$#jottoj'''$'']kNNuTttttttTONKr]'$$$$'jXttoj#'9{aa{d#++",
"+#$d{aa{d$#jottoj'##+''.rNNuTttttttTONKk]'''$$$jottoj#'d{aa{d$#+",
"+##d{aa{d'#jottXJ]]ijjjJrNNuXttttttTONKrljjji]]Jottoj$#d{aa{d$++",
"++#dcaa{d$$jottTwkkmnoXWwKNOTttttttTONNVWoonm*kwTttoj#'d{aa{d$#+",
"+##d{aa{d$$jottTONNuTttTOKKOTttttttTONKstttTuNNuTttoj#$d{aa{d+++",
"@##d{aa{d'$jottTONNOTttTONNOTttTtttTONNOTttTOKNOTttoj$$d{aa{d$#+",
"+#$d{aa{9'$jottTONNOTtttONNOTtttTttTOKNOTttTONVuTttoj$$d{aacd$++",
"+#$dcee{d$#jXttTNNNOTttTONNOXttttttTONNOTttTOKNOTttoj#$d{eb{9$$+",
"+#$d{becd'#jottTuNNOTttTONNOXttttttTOrNOTttTONNOTttoj$$d{be{d'#+",
"++$d{eecd$#jottTuNNOTttTONNOTtttttTTONNOTttTONNOTttoj$'9{be{9$#+",
"+#'9{be{d$+jottTuKKsTttTNNKwTttttttTONNOTttTONNOTttoj$'d{eb{d$++",
"+##9ceecd'$jottTuNNNTttTuNKuTttttttTONNVTttTONNOTttoj+$d{ab{d$$+",
"++'dcabc9'#jotttuNNuTttTuNNuXttttttTONKsTttTONNOTttoj#'dcaa{d$#+",
"+#$dcea{d$$jottTuNNuTttTuNNNTttttttTNNNOTttTONNOTttoj$'dceb{9$#+",
"+#$dDEEDd$$jXttTuNmuTttTuNNuTTtttttTuNNOTttTNNNOTttXj##dDEED*$++",
"++#&<(([*$$jottTNNNNtttTuNNuTttttTtTONNOTttTONNOTttoj'+&[3([&#++",
"+#+&>))>&$$jottTuNNuTttTNNNuTttttttTONNOTttTOrNOTttoj+'&>{)>&#++",
"++#&>){>&$$jottTuNNuTttTONNOTttttttTONNOTttTONNOTttXj++&>~)>&#++",
"++#&[(([k$$jottTuNNuTttTONNOTttttttTONNOTttTONNOTttoj#'*[(([*$++",
"++$dDEEDd$$JottTNNNuTttTONNOTttttttTwKNOTttTsKNOTttoj$$dDEEDd$++",
"+$$d{aacd$'iottTuNNuTttTONNOTtttTttTONNOTttTONKOTttoj$'dcbb{d$$+",
"++$dcbbcd$$JottTuNmuTttTuNNuTttttttTONKuTttTONNsTttXj$$d{bbcd$#+",
"++$dDEEDd$$isttXuNwNXTTXONNNXTTTTTTXONNNXTTXONNVXTtWj$$dDEEDd$++",
"++$*[1([*$$imuuOONNNuuuONNNOuuuuuuuuNNNNuuuuONNNOOOmi##*[(([*#++",
"++$&>))>=$$]lNNNNNNNNNNNNNNNNNNNNNNNNVNNNNNNNNNNNNNkh#'=>)~>&+++",
"+#+*>))>%''hrNNNNNNNNNNNNVNNNNNNNNNNNNNNNNNNNNNNNNNk]#'=>))>&#++",
"++$=>))<6dddkkkkkkkkkkrkkkkkkkkkkkkkkmkkkkkkkkkkkkr**dd6[))>&#++",
"+++&>)):{ccgd]]iiii]]iiiiiiiiiiiiiii]]i]j]iiiiiii]]d,c{{:~)>&#++",
"++$&;))14bbcd$$$$+$++$+$#+$$$$$$+#$$+$++'+#+##$+##'dcbb4()),&#++",
"++$&;))14bbcd$$$$$$$$$$$$$$$$$$$$$#$$$+$+''+$$$$#''dcbb4()!>&##+",
"+++%-,,/348{6%%*&=*&=*&**=***=*==*=*&&&&&&&&==**&=%6{E43/>>-%+++",
"+++]%&&^/(1:<>>>,>>;>>;>>,>;>>,,,,;>>,>>;,>;>>>>>>><~|(/^=&%.+++",
".+++$$'&>)))))))))))))))))))))))))))))))))))))!)))))){)>='##++++",
".++++$'&v)))))))))))))))))))))))))))))))))))))))))))))!>&'#+++++",
"....+++%-,;,>>>,>>>>;,,>>;>>,;>>;>;>;>,;>>>>;>,>>;>>>>>S%##@.]..",
"    .++.%&&&**&=*=**=*=**&&&&*=*=*&&**=**=**=*=**&&&&&&%]++@    ",
"    .+++$+$$$$$+##$$##$$$+#$+$$#$+$$$$$$#$$$$+$$##+$###++++.    ",
"    ..++++++$++#+++++#+++++++$+$+#+++++$+++++#++++#++++++++.    ",
"    ..+@+++@+@++++++++++++++++@+@++++++@++++++++++++@++++++.    "};
