/* XPM */
static char *_eb146dce8134c5ce9ffadb0170218085DmWnw18ZTQ35g0E[] = {
/* columns rows colors chars-per-pixel */
"64 64 121 2 ",
"   c None",
".  c #0F072F",
"X  c #10052D",
"o  c #10092F",
"O  c #0F0B33",
"+  c #0E0F3A",
"@  c #100930",
"#  c #0E133C",
"$  c #0E0047",
"%  c #0D004A",
"&  c #0D094E",
"*  c #0D1545",
"=  c #0C1649",
"-  c #0C194C",
";  c #0B0856",
":  c #0A1F57",
">  c #0A2057",
",  c #0D2956",
"<  c #09235D",
"1  c #0C2D5C",
"2  c #0C315E",
"3  c #0A1765",
"4  c #0B1E66",
"5  c #092561",
"6  c #092963",
"7  c #072D6E",
"8  c #0B3462",
"9  c #09366C",
"0  c #0A2470",
"q  c #062F72",
"w  c #082E77",
"e  c #062678",
"r  c #063073",
"t  c #093C72",
"y  c #04357D",
"u  c #0A4777",
"i  c #094A7B",
"p  c #043781",
"a  c #083782",
"s  c #043A83",
"d  c #033D8A",
"f  c #084E83",
"g  c #03428D",
"h  c #04498E",
"j  c #014496",
"k  c #044C93",
"l  c #00469A",
"z  c #00499D",
"x  c #03529B",
"c  c #004BA0",
"v  c #0155A5",
"b  c #005AAC",
"n  c #066BA4",
"m  c #066BAA",
"M  c #0675AC",
"N  c #0063B4",
"B  c #016BB6",
"V  c #006FBC",
"C  c #006EB9",
"Z  c #0376B5",
"A  c #0472B0",
"S  c #0373BB",
"D  c #0378B9",
"F  c #0379BB",
"G  c #0378B8",
"H  c #0074C0",
"J  c #0074C1",
"K  c #0076C2",
"L  c #0076C2",
"P  c #017CC2",
"I  c #017FC6",
"U  c #0380C0",
"Y  c #0281C1",
"T  c #0381C1",
"R  c #0283C4",
"E  c #0284C5",
"W  c #038BC7",
"Q  c #048BC5",
"!  c #048BC6",
"~  c #038CC7",
"^  c #0082CC",
"/  c #0083CC",
"(  c #0084CC",
")  c #0085CF",
"_  c #0082CC",
"`  c #038CC8",
"'  c #038DC8",
"]  c #038DC9",
"[  c #038EC8",
"{  c #038EC9",
"}  c #038FCA",
"|  c #0388CC",
" . c #028ACE",
".. c #038CC9",
"X. c #0086D1",
"o. c #0190D5",
"O. c #0194D7",
"+. c #0194D9",
"@. c #0097DD",
"#. c #0098DE",
"$. c #019ADE",
"%. c #009CE2",
"&. c #009EE2",
"*. c #009EE3",
"=. c #009DE4",
"-. c #009EE3",
";. c #00A0E5",
":. c #00A9EB",
">. c #00AAEC",
",. c #00ABEC",
"<. c #00AEEF",
"1. c #01AFEF",
"2. c #00ADEF",
"3. c #00AFF0",
"4. c #00AFF0",
"5. c #00B0F0",
"6. c #00B0F1",
"7. c #00B1F1",
"8. c #00B2F2",
"9. c #00B3F3",
"0. c #00B1F1",
/* pixels */
"                                            O O     O O             O O     O O                                                 ",
"                                            O O     O O             O O     O O                                                 ",
"                                        O O         O O             O O         O O                                             ",
"                                        O O         O O             O O         O O                                             ",
"                                        O O                                     O O                                             ",
"                                        O O                                     O O                                             ",
"                                        O O         O O O O O O O O O O         O O                                             ",
"                                        O O         - - - - - - - - - -         O O                                             ",
"                                        O O O O @ - r s s s s s s s s r - @ O O O O                                             ",
"                                        O O O + * 5 d c c z z z z c c d 5 * + O O O                                             ",
"                                        O O O * 7 d l z z z z z z z z l d 7 * O O O                                             ",
"                                        - * + - s c z z z z z z z z z z c s - + * -                                             ",
"                                    o - r q * - s c z z z z z z z z z z c s - * q r - o                                         ",
"                                    - 5 d d 5 > r d j z z z z z z z z j d r > 5 d d 5 -                                         ",
"        O O                     O - q d l l d r > < d z z z z z z z z d < > r d l l d q - O                     O O             ",
"        O O                     O - s c z z c d < < d z z z z z z z z d < < d c z z c s - O                     O O             ",
"        O O O O O O             O - s c z z z j d d j z z z z z z z z j d d j z z z c s - O             O O O O O O             ",
"        O + * - - -             O - s z z z z z z z z z z z z z z z z z z z z z z z z s - O             - - - * + O             ",
"        O * 7 s s r - o @ O     O - s z z z z z c c z z z z z z z z z z c c z z z z z s - O     O @ o - r s s 7 * O             ",
"        O - s c c d 5 - - -     @ - s z z j s p p p p s j z z z z j s p p p p s j z z s - @     - - - 5 d c c s - O             ",
"        O - s c c j d s s r - o @ - s c z d < = = = = < d c z z c d < = = = = < d z c s - @ o - r s s d j c c s - O             ",
"        O - r d j z z c c d 5 * O - s z z g t 8 8 8 8 9 y d j j d y 9 8 8 8 8 t g z z s - O * 5 d c c z z j d r - O             ",
"            - 5 d z z z z l d 7 * - s z l v F ! ! ~ ' n 8 < d d < 8 n ' ~ ! ! F v l z s - * 7 d l z z z z d 5 -                 ",
"            o - s c z z z z c d 5 < d c b B Y ~ W ' ' M u 9 g g 9 u M ' ' W ~ Y B b c d < 5 d c z z z z c s - o                 ",
"            @ - s c z z z z z j d d j b ( Y f 8 8 8 8 i M F v v F M i 8 8 8 8 f Y ( b j d d j z z z z z c s - @                 ",
"            O - q d l z z z z z z z l N %.! 2 X X X X 8 ' =.N N =.' 8 X X X X 2 ! %.N l z z z z z z z l d q - O                 ",
"                - 5 d c c z z z c z l N %.! 2 X X . X 8 ' =.N N =.' 8 X . X X 2 ! %.N l z c z z z c c d 5 -                     ",
"                o - q s s s s s s d j b X.Y f , # . X , n S l l S n , X . # , f Y X.b j d s s s s s s q - o                     ",
"                    - - - - - - - 5 d v b C R n , X X * 5 0 3 3 0 5 * X X , n R C b v d 5 - - - - - - -                         ",
"                    O O O O O @ o - r p y x ( E f 8 8 < & $ % % $ & < 8 8 f E ( x y p r - o @ O O O O O                         ",
"                                    - - = 6 x V R ' ' m 4 $ % % $ 4 m ' ' R V x 6 = - -                                         ",
"                                    - - - : q k Z ' ' m w ; % % ; w m ' ' Z k q : - - -                                         ",
"                            O @ o - r s s r : - 1 8 8 9 y e ; ; e p 9 8 8 1 - : r s s r - o @ O                                 ",
"                            - - - 5 d c c d 5 = = = * 6 x v p a v x 6 * = = = 5 d c c d 5 - - -                                 ",
"                        o - q s s d j z z j d s p y y k I +.| | o.P k y y p s d j z z j d s s q - o                             ",
"                        - 5 d c c z z z z z z z z c b H %.8.8.8.2.#.H b c z z z z z z z z c c d 5 -                             ",
"                    o - q d l z z z z z z z z z l b ^ %.>.8.8.8.3.:.%.^ b l z z z z z z z z z l d q - o                         ",
"                    - 5 d c z z z z z j d d j c b H %.8.8.2.2.2.2.8.8.%.H b c j d d j z z z z z c d 5 -                         ",
"                O - q d l z z z z z c d < < s b ^ %.>.8.3.2.2.2.2.3.8.>.%.^ b s < 5 d c z z z z z l d q - O                     ",
"                O - s c z z z z z j d 7 * = y N #.8.8.2.2.2.2.2.2.2.2.8.8.#.N y = * 7 d j z z z z z c s - O                     ",
"                O - s c z z z z z d 5 * O - p N @.8.8.2.2.2.2.2.2.2.2.8.8.@.N p - O * < d z z z z z c s - O                     ",
"                O - s c z z z z z d 5 * O - p N @.8.3.2.2.2.2.2.2.2.2.3.8.@.N p - O * < d z z z z z c s - O                     ",
"                O - s c z z z z z j d 7 * = p N @.8.3.2.2.2.2.2.2.2.2.3.8.@.N p = * 7 d j z z z z z c s - O                     ",
"                O - r d j z z z z z c d 5 : q x O.8.8.2.2.2.2.2.2.2.2.8.8.O.x q : 5 d c z z z z z j d r - O                     ",
"                    - 5 d z z z z z z l d q : t ' 9.8.2.2.2.2.2.2.2.2.8.9.' t : q d l z z z z z z d 5 -                         ",
"                    o - s c z z z z z z c s = , A =.>.8.2.2.2.2.2.3.8.>.=.A , = s c z z z z z z c s - o                         ",
"                    @ - s c z z z z z z c s = - h H %.8.8.2.2.2.2.8.8.%.H h - = s c z z z z z z c s - @                         ",
"                    O - q d l z z z z l d r > < s b ^ %.>.8.3.3.8.>.%.^ b s < > r d l z z z z l d q - O                         ",
"                        - 5 d c c c c d 5 > r d j c b H %.8.8.8.8.%.H b c j d r > 5 d c c c c d 5 -                             ",
"                        o - q s s s s 7 * - s c z l l b _ %.2.2.%._ b l l z c s - * 7 s s s s q - o                             ",
"                            - - - - - * O - s c z l l z b H ;.;.H b z l l z c s - O * - - - - -                                 ",
"                            O O O O O @ @ - s z z z z l l v F F v l l z z z z s - @ @ O O O O O                                 ",
"                                        o - s z z z z z z g 9 9 g z z z z z z s - o                                             ",
"                                        - 5 d z z z z j d q * * q d j z z z z d 5 -                                             ",
"                                    O - r d j z z z z d 5 =     = 5 d z z z z j d r - O                                         ",
"                                    O - s c z z z z z s - o     o - s z z z z z c s - O                                         ",
"                                    O - s c z z z z z s - @     @ - s z z z z z c s - O                                         ",
"                                    O - s c z z z z c s - O     O - s c z z z z c s - O                                         ",
"                                    O - s c c z z c c s - O     O - s c c z z c c s - O                                         ",
"                                    O - r s s s s s s r - O     O - r s s s s s s q - O                                         ",
"                                        - - - - - - - -             - - - - - - - -                                             ",
"                                        O O O O O O O O             O O O O O O O O                                             ",
"                                                                                                                                ",
"                                                                                                                                "
};
